<?xml version="1.0" encoding="UTF-8" standalone="no"?>
<svg
   xmlns:dc="http://purl.org/dc/elements/1.1/"
   xmlns:cc="http://creativecommons.org/ns#"
   xmlns:rdf="http://www.w3.org/1999/02/22-rdf-syntax-ns#"
   xmlns:svg="http://www.w3.org/2000/svg"
   xmlns="http://www.w3.org/2000/svg"
   xmlns:sodipodi="http://sodipodi.sourceforge.net/DTD/sodipodi-0.dtd"
   xmlns:inkscape="http://www.inkscape.org/namespaces/inkscape"
   viewBox="0 0 294.12808 241.40416"
   version="1.1"
   id="svg8"
   sodipodi:docname="logo.svg"
   inkscape:version="1.0.2 (394de47547, 2021-03-26)">
  <defs
     id="defs2">
    <linearGradient
       gradientTransform="matrix(0.25319611,0,0,0.25319611,-21.34823,-130.52513)"
       id="b"
       y2="771.51001"
       gradientUnits="userSpaceOnUse"
       x2="527.71997"
       y1="771.51001"
       x1="84.315002">
      <stop
         stop-color="#4a9ea1"
         offset="0"
         id="stop883" />
    </linearGradient>
    <linearGradient
       gradientTransform="matrix(0.25319611,0,0,0.25319611,-21.34823,-130.52513)"
       id="a"
       y2="771.47998"
       gradientUnits="userSpaceOnUse"
       x2="512.35999"
       y1="771.47998"
       x1="99.675003">
      <stop
         stop-color="#63d3d7"
         offset="0"
         id="stop886" />
    </linearGradient>
  </defs>
  <sodipodi:namedview
     id="base"
     pagecolor="#ffffff"
     bordercolor="#666666"
     borderopacity="1.0"
     inkscape:pageopacity="0.0"
     inkscape:pageshadow="2"
     inkscape:zoom="1.979899"
     inkscape:cx="150.19"
     inkscape:cy="160.81268"
     inkscape:document-units="mm"
     inkscape:current-layer="g979"
     inkscape:document-rotation="0"
     showgrid="false"
     fit-margin-top="0"
     fit-margin-left="0"
     fit-margin-right="0"
     fit-margin-bottom="0"
     inkscape:window-width="1647"
     inkscape:window-height="1212"
     inkscape:window-x="0"
     inkscape:window-y="30"
     inkscape:window-maximized="0" />
  <metadata
     id="metadata5">
    <rdf:RDF>
      <cc:Work
         rdf:about="">
        <dc:format>image/svg+xml</dc:format>
        <dc:type
           rdf:resource="http://purl.org/dc/dcmitype/StillImage" />
        <dc:title></dc:title>
      </cc:Work>
    </rdf:RDF>
  </metadata>
  <g
     inkscape:label="Layer 1"
     inkscape:groupmode="layer"
     id="layer1"
     transform="translate(43.74275,-18.636464)">
    <g
       id="g924"
       transform="matrix(1.431259,0,0,1.431259,23.164516,44.469919)">
      <g
         id="g979">
        <g
           id="g968">
          <path
             style="fill-opacity:0.13018;stroke-width:0.253196"
             d="M 0,32.409102 56.133575,64.818204 112.26716,32.409102 56.133575,0 Z"
             id="path901" />
          <path
             style="fill:url(#b);stroke-width:0.253196"
             d="M 0,97.227302 56.133575,129.6364 112.26716,97.227302 V 32.409098 L 56.133575,0.002528 0,32.41163 Z"
             id="path891" />
          <path
             style="fill:url(#a);stroke-width:0.253196"
             d="M 50.339185,7.8085637 9.640445,31.306682 c 0.0813,0.722698 0.0813,1.45213 0,2.174803 l 40.70127,23.498118 c 3.43182,-2.532215 8.11316,-2.532215 11.54498,0 L 102.58798,33.481231 c -0.0813,-0.722697 -0.0818,-1.451776 -2.5e-4,-2.174448 L 61.888975,7.808665 c -3.43182,2.532214 -8.11341,2.532214 -11.54549,0 z M 106.49555,39.972066 65.751235,63.731989 c 0.47702,4.238249 -1.86381,8.292425 -5.77262,9.998461 l 0.0457,46.73494 c 0.66654,0.2909 1.29806,0.65542 1.88327,1.08722 L 102.60887,98.054747 c -0.47702,-4.23825 1.8638,-8.292679 5.77262,-9.998715 v -46.99573 c -0.66654,-0.290897 -1.29842,-0.655423 -1.88363,-1.087224 z M 5.771605,40.233237 c -0.58519,0.431801 -1.21671,0.796682 -1.88327,1.087579 v 46.99573 c 3.90884,1.705985 6.24964,5.760211 5.77262,9.998461 l 40.69874,23.498123 c 0.58519,-0.4318 1.21709,-0.79669 1.88363,-1.08758 V 73.729817 c -3.90885,-1.705985 -6.24964,-5.760212 -5.77262,-9.998461 L 5.771955,40.232225 Z"
             id="path893" />
          <path
             style="fill-opacity:0.039216;stroke-width:0.253196"
             d="M 56.134085,129.63641 C 63.143465,66.53726 51.335575,62.047753 5.07e-4,32.409102 v 64.818204 z"
             id="path899" />
        </g>
        <text
           xml:space="preserve"
           style="font-size:234.567px;line-height:1.25;font-family:sans-serif;stroke-width:1.26225523;stroke:#000000;stroke-opacity:0.24528299;fill:#f6f6f6;fill-opacity:1;stroke-miterlimit:4;stroke-dasharray:none"
           x="-54.719284"
           y="134.58856"
           id="text928"
           transform="scale(0.89358662,1.1190857)"><tspan
             sodipodi:role="line"
             id="tspan926"
             x="-54.719284"
             y="134.58856"
             style="font-style:normal;font-variant:normal;font-weight:normal;font-stretch:normal;font-size:234.567px;font-family:Ani;-inkscape-font-specification:'Ani, Normal';font-variant-ligatures:normal;font-variant-caps:normal;font-variant-numeric:normal;font-variant-east-asian:normal;stroke-width:1.26225523;stroke:#000000;stroke-opacity:0.24528299;fill:#f6f6f6;fill-opacity:1;stroke-miterlimit:4;stroke-dasharray:none">&lt;</tspan></text>
        <text
           xml:space="preserve"
           style="font-size:234.567px;line-height:1.25;font-family:sans-serif;stroke-width:1.26225523;stroke:#000000;stroke-opacity:0.24528299;fill:#f6f6f6;fill-opacity:1;stroke-miterlimit:4;stroke-dasharray:none"
           x="44.68671"
           y="132.76631"
           id="text928-1"
           transform="scale(0.89358662,1.1190857)"><tspan
             sodipodi:role="line"
             id="tspan926-0"
             x="44.68671"
             y="132.76631"
             style="font-style:normal;font-variant:normal;font-weight:normal;font-stretch:normal;font-size:234.567px;font-family:Ani;-inkscape-font-specification:'Ani, Normal';font-variant-ligatures:normal;font-variant-caps:normal;font-variant-numeric:normal;font-variant-east-asian:normal;stroke-width:1.26225523;stroke:#000000;stroke-opacity:0.24528299;fill:#f6f6f6;fill-opacity:1;stroke-miterlimit:4;stroke-dasharray:none">&gt;</tspan></text>
      </g>
    </g>
  </g>
</svg>
